<svg width="520" height="520" viewBox="0 0 520 520" fill="none" xmlns="http://www.w3.org/2000/svg">
<g filter="url(#filter0_d)">
<path d="M260 504C396.967 504 508 392.967 508 256C508 119.033 396.967 8 260 8C123.033 8 12 119.033 12 256C12 392.967 123.033 504 260 504Z" fill="#F8FDFF"/>
</g>
<path d="M114.876 154.32H92.3941C81.9985 154.32 73.5713 162.745 73.5713 173.139C73.5713 183.532 81.9985 191.958 92.3941 191.958H114.876C125.271 191.958 133.699 183.532 133.699 173.139C133.699 162.745 125.271 154.32 114.876 154.32Z" fill="#F0F4F6"/>
<path d="M269.278 319.698C323.99 319.698 368.342 275.346 368.342 220.635C368.342 165.924 323.99 121.571 269.278 121.571C214.567 121.571 170.215 165.924 170.215 220.635C170.215 275.346 214.567 319.698 269.278 319.698Z" fill="#F0F4F6"/>
<path d="M193.093 154.32H170.611C160.215 154.32 151.788 162.745 151.788 173.139C151.788 183.532 160.215 191.958 170.611 191.958H193.093C203.488 191.958 211.915 183.532 211.915 173.139C211.915 162.745 203.488 154.32 193.093 154.32Z" fill="#F0F4F6"/>
<path d="M397.914 208.61H137.614C127.218 208.61 118.791 217.035 118.791 227.429C118.791 237.822 127.218 246.248 137.614 246.248H397.914C408.309 246.248 416.737 237.822 416.737 227.429C416.737 217.035 408.309 208.61 397.914 208.61Z" fill="#F0F4F6"/>
<path d="M432.986 268.223H417.961C407.566 268.223 399.139 276.649 399.139 287.043C399.139 297.436 407.566 305.862 417.961 305.862H432.986C443.382 305.862 451.809 297.436 451.809 287.043C451.809 276.649 443.382 268.223 432.986 268.223Z" fill="#F0F4F6"/>
<path d="M350.997 226H166.003C161.583 226 158 229.943 158 234.807V358.193C158 363.057 161.583 367 166.003 367H350.997C355.417 367 359 363.057 359 358.193V234.807C359 229.943 355.417 226 350.997 226Z" fill="#00529C"/>
<path d="M351.104 173.069H166.184C161.765 173.069 158.184 176.651 158.184 181.069V207.764C158.184 212.183 161.765 215.764 166.184 215.764H351.104C355.522 215.764 359.104 212.183 359.104 207.764V181.069C359.104 176.651 355.522 173.069 351.104 173.069Z" fill="#00529C"/>
<path d="M197.39 158H184.275C180.962 158 178.275 160.686 178.275 164V182.138C178.275 185.452 180.962 188.138 184.275 188.138H197.39C200.704 188.138 203.39 185.452 203.39 182.138V164C203.39 160.686 200.704 158 197.39 158Z" fill="#F16823"/>
<path d="M335.524 158H322.409C319.095 158 316.409 160.686 316.409 164V182.138C316.409 185.452 319.095 188.138 322.409 188.138H335.524C338.838 188.138 341.524 185.452 341.524 182.138V164C341.524 160.686 338.838 158 335.524 158Z" fill="#F16823"/>
<rect x="178" y="251" width="58" height="4" rx="2" fill="white"/>
<rect x="240" y="251" width="4" height="4" rx="2" fill="#F16823"/>
<rect x="258" y="244" width="19" height="17" rx="3" fill="#A4CFF7"/>
<rect x="322" y="244" width="19" height="17" rx="3" fill="#003667"/>
<rect x="290" y="244" width="19" height="17" rx="3" fill="#A4CFF7"/>
<rect x="258" y="272" width="19" height="17" rx="3" fill="#42A5FF"/>
<rect x="322" y="272" width="19" height="17" rx="3" fill="#003667"/>
<rect x="290" y="272" width="19" height="17" rx="3" fill="#42A5FF"/>
<rect x="226" y="272" width="19" height="17" rx="3" fill="#42A5FF"/>
<rect x="194" y="272" width="19" height="17" rx="3" fill="#42A5FF"/>
<rect x="258" y="334" width="19" height="17" rx="3" fill="#42A5FF"/>
<rect x="322" y="334" width="19" height="17" rx="3" fill="#003667"/>
<rect x="290" y="334" width="19" height="17" rx="3" fill="#42A5FF"/>
<rect x="226" y="334" width="19" height="17" rx="3" fill="#42A5FF"/>
<rect x="194" y="334" width="19" height="17" rx="3" fill="#42A5FF"/>
<rect x="258" y="303" width="19" height="17" rx="3" fill="#42A5FF"/>
<rect x="322" y="303" width="19" height="17" rx="3" fill="#003667"/>
<rect x="290" y="303" width="19" height="17" rx="3" fill="#42A5FF"/>
<rect x="226" y="303" width="19" height="17" rx="3" fill="#42A5FF"/>
<rect x="194" y="303" width="19" height="17" rx="3" fill="#42A5FF"/>
<rect x="178" y="275" width="3" height="11" rx="1.5" fill="white"/>
<rect x="178" y="306" width="3" height="11" rx="1.5" fill="white"/>
<rect x="178" y="337" width="3" height="11" rx="1.5" fill="white"/>
<defs>
<filter id="filter0_d" x="0" y="0" width="520" height="520" filterUnits="userSpaceOnUse" color-interpolation-filters="sRGB">
<feFlood flood-opacity="0" result="BackgroundImageFix"/>
<feColorMatrix in="SourceAlpha" type="matrix" values="0 0 0 0 0 0 0 0 0 0 0 0 0 0 0 0 0 0 127 0"/>
<feOffset dy="4"/>
<feGaussianBlur stdDeviation="6"/>
<feColorMatrix type="matrix" values="0 0 0 0 0 0 0 0 0 0 0 0 0 0 0 0 0 0 0.08 0"/>
<feBlend mode="normal" in2="BackgroundImageFix" result="effect1_dropShadow"/>
<feBlend mode="normal" in="SourceGraphic" in2="effect1_dropShadow" result="shape"/>
</filter>
</defs>
</svg>
