<svg width="520" height="520" viewBox="0 0 520 520" fill="none" xmlns="http://www.w3.org/2000/svg">
<g filter="url(#filter0_d)">
<circle cx="260" cy="256" r="248" fill="#F8FDFF"/>
</g>
<path d="M114.876 154.32H92.3941C81.9985 154.32 73.5713 162.745 73.5713 173.139C73.5713 183.532 81.9985 191.958 92.3941 191.958H114.876C125.271 191.958 133.699 183.532 133.699 173.139C133.699 162.745 125.271 154.32 114.876 154.32Z" fill="#F0F4F6"/>
<path d="M269.278 319.698C323.99 319.698 368.342 275.346 368.342 220.635C368.342 165.924 323.99 121.571 269.278 121.571C214.567 121.571 170.215 165.924 170.215 220.635C170.215 275.346 214.567 319.698 269.278 319.698Z" fill="#F0F4F6"/>
<path d="M193.093 154.32H170.611C160.215 154.32 151.788 162.745 151.788 173.139C151.788 183.532 160.215 191.958 170.611 191.958H193.093C203.488 191.958 211.915 183.532 211.915 173.139C211.915 162.745 203.488 154.32 193.093 154.32Z" fill="#F0F4F6"/>
<path d="M397.914 208.61H137.614C127.218 208.61 118.791 217.035 118.791 227.429C118.791 237.822 127.218 246.248 137.614 246.248H397.914C408.309 246.248 416.737 237.822 416.737 227.429C416.737 217.035 408.309 208.61 397.914 208.61Z" fill="#F0F4F6"/>
<path d="M432.986 268.223H417.961C407.566 268.223 399.139 276.649 399.139 287.043C399.139 297.436 407.566 305.862 417.961 305.862H432.986C443.382 305.862 451.809 297.436 451.809 287.043C451.809 276.649 443.382 268.223 432.986 268.223Z" fill="#F0F4F6"/>
<rect x="158.184" y="194.811" width="200.92" height="128.087" rx="8" fill="#00529C"/>
<rect x="158.184" y="142.069" width="200.92" height="42.6956" rx="8" fill="#00529C"/>
<rect x="178.275" y="127" width="25.115" height="30.1381" rx="6" fill="#FFD232"/>
<rect x="316.409" y="127" width="25.115" height="30.1381" rx="6" fill="#FFD232"/>
<path d="M225.515 242H229.135L224.055 227.96H220.095L215.015 242H218.595L219.435 239.52H224.675L225.515 242ZM223.795 236.88H220.335L222.055 231.74L223.795 236.88ZM237.241 227.8C233.041 227.8 230.101 230.76 230.101 234.96C230.101 239.16 233.061 242.1 237.261 242.1C240.961 242.1 243.301 239.68 244.021 237.26V234.08H236.581V236.6H240.921C240.401 238.18 239.221 239.08 237.521 239.08C235.061 239.08 233.581 237.56 233.581 234.96C233.581 232.52 235.041 230.96 237.241 230.96C238.521 230.96 239.481 231.46 240.001 232.4H243.781C243.041 229.52 240.601 227.8 237.241 227.8ZM245.856 236.34C245.856 240.22 248.396 242.14 251.656 242.14C254.896 242.14 257.616 240.22 257.616 236.34V227.96H254.196V236.36C254.196 238.02 253.336 238.98 251.716 238.98C250.096 238.98 249.276 238.02 249.276 236.36V227.96H245.856V236.34ZM270.217 237.82C270.217 233.12 263.277 234.22 263.277 231.78C263.277 230.9 263.897 230.48 264.717 230.5C265.637 230.52 266.277 231.06 266.337 231.96H270.037C269.897 229.28 267.837 227.76 264.777 227.76C261.837 227.76 259.657 229.24 259.657 231.9C259.617 236.88 266.637 235.48 266.637 238.08C266.637 238.9 265.997 239.4 264.997 239.4C264.037 239.4 263.357 238.88 263.257 237.8H259.617C259.717 240.64 262.077 242.14 265.097 242.14C268.377 242.14 270.217 240.18 270.217 237.82ZM271.562 230.7H275.282V242H278.702V230.7H282.422V227.96H271.562V230.7ZM284.078 236.34C284.078 240.22 286.618 242.14 289.878 242.14C293.118 242.14 295.838 240.22 295.838 236.34V227.96H292.418V236.36C292.418 238.02 291.558 238.98 289.938 238.98C288.318 238.98 287.498 238.02 287.498 236.36V227.96H284.078V236.34ZM308.44 237.82C308.44 233.12 301.5 234.22 301.5 231.78C301.5 230.9 302.12 230.48 302.94 230.5C303.86 230.52 304.5 231.06 304.56 231.96H308.26C308.12 229.28 306.06 227.76 303 227.76C300.06 227.76 297.88 229.24 297.88 231.9C297.84 236.88 304.86 235.48 304.86 238.08C304.86 238.9 304.22 239.4 303.22 239.4C302.26 239.4 301.58 238.88 301.48 237.8H297.84C297.94 240.64 300.3 242.14 303.32 242.14C306.6 242.14 308.44 240.18 308.44 237.82Z" fill="white"/>
<path d="M214.615 292.6H234.695V287.04H223.895C228.535 283.48 234.255 278.36 234.255 271.96C234.255 267.04 231.295 263.16 224.655 263.16C219.335 263.16 214.735 266.2 214.535 273.28H221.135C221.135 270.52 222.335 268.92 224.375 268.92C226.455 268.92 227.415 270.28 227.415 272.4C227.415 277.32 220.815 282.4 214.615 287.52V292.6ZM237.706 278C237.706 286.64 240.626 292.88 248.946 292.88C257.266 292.88 260.186 286.64 260.186 278C260.186 269.44 257.266 263.2 248.946 263.2C240.626 263.2 237.706 269.44 237.706 278ZM253.466 278C253.466 282.64 252.986 286.48 248.946 286.48C244.906 286.48 244.426 282.64 244.426 278C244.426 273.52 244.906 269.6 248.946 269.6C252.986 269.6 253.466 273.52 253.466 278ZM263.56 292.6H283.64V287.04H272.84C277.48 283.48 283.2 278.36 283.2 271.96C283.2 267.04 280.24 263.16 273.6 263.16C268.28 263.16 263.68 266.2 263.48 273.28H270.08C270.08 270.52 271.28 268.92 273.32 268.92C275.4 268.92 276.36 270.28 276.36 272.4C276.36 277.32 269.76 282.4 263.56 287.52V292.6ZM286.652 278C286.652 286.64 289.572 292.88 297.892 292.88C306.212 292.88 309.132 286.64 309.132 278C309.132 269.44 306.212 263.2 297.892 263.2C289.572 263.2 286.652 269.44 286.652 278ZM302.412 278C302.412 282.64 301.932 286.48 297.892 286.48C293.852 286.48 293.372 282.64 293.372 278C293.372 273.52 293.852 269.6 297.892 269.6C301.932 269.6 302.412 273.52 302.412 278Z" fill="white"/>
<rect x="381.708" y="337.966" width="12.5575" height="100.46" rx="5" transform="rotate(90 381.708 337.966)" fill="#FF8832"/>
<path d="M401.16 343.827C401.462 344.024 401.462 344.466 401.16 344.664L370.527 364.693C370.114 364.963 369.6 364.533 369.794 364.079L378.22 344.245L369.794 324.412C369.6 323.957 370.114 323.528 370.527 323.798L401.16 343.827Z" fill="#FF8832"/>
<rect width="12.5575" height="100.46" rx="5" transform="matrix(4.37114e-08 1 1 -4.37114e-08 138.092 337.966)" fill="#FF8832"/>
<path d="M118.64 343.827C118.338 344.024 118.338 344.466 118.64 344.664L149.272 364.693C149.686 364.963 150.199 364.533 150.006 364.079L141.58 344.245L150.006 324.412C150.199 323.957 149.686 323.528 149.272 323.798L118.64 343.827Z" fill="#FF8832"/>
<defs>
<filter id="filter0_d" x="0" y="0" width="520" height="520" filterUnits="userSpaceOnUse" color-interpolation-filters="sRGB">
<feFlood flood-opacity="0" result="BackgroundImageFix"/>
<feColorMatrix in="SourceAlpha" type="matrix" values="0 0 0 0 0 0 0 0 0 0 0 0 0 0 0 0 0 0 127 0"/>
<feOffset dy="4"/>
<feGaussianBlur stdDeviation="6"/>
<feColorMatrix type="matrix" values="0 0 0 0 0 0 0 0 0 0 0 0 0 0 0 0 0 0 0.08 0"/>
<feBlend mode="normal" in2="BackgroundImageFix" result="effect1_dropShadow"/>
<feBlend mode="normal" in="SourceGraphic" in2="effect1_dropShadow" result="shape"/>
</filter>
</defs>
</svg>
