<svg width="520" height="520" viewBox="0 0 520 520" fill="none" xmlns="http://www.w3.org/2000/svg">
<g filter="url(#filter0_d)">
<circle cx="260" cy="256" r="248" fill="#F8FDFF"/>
</g>
<path d="M110.876 160.32H88.3941C77.9985 160.32 69.5713 168.745 69.5713 179.139C69.5713 189.532 77.9985 197.958 88.3941 197.958H110.876C121.271 197.958 129.699 189.532 129.699 179.139C129.699 168.745 121.271 160.32 110.876 160.32Z" fill="#F0F4F6"/>
<path d="M265.278 325.698C319.99 325.698 364.342 281.346 364.342 226.635C364.342 171.924 319.99 127.571 265.278 127.571C210.567 127.571 166.215 171.924 166.215 226.635C166.215 281.346 210.567 325.698 265.278 325.698Z" fill="#F0F4F6"/>
<path d="M189.093 160.32H166.611C156.215 160.32 147.788 168.745 147.788 179.139C147.788 189.532 156.215 197.958 166.611 197.958H189.093C199.488 197.958 207.915 189.532 207.915 179.139C207.915 168.745 199.488 160.32 189.093 160.32Z" fill="#F0F4F6"/>
<path d="M393.914 214.61H133.614C123.218 214.61 114.791 223.035 114.791 233.429C114.791 243.822 123.218 252.248 133.614 252.248H393.914C404.309 252.248 412.737 243.822 412.737 233.429C412.737 223.035 404.309 214.61 393.914 214.61Z" fill="#F0F4F6"/>
<path d="M428.986 274.224H413.961C403.566 274.224 395.139 282.649 395.139 293.043C395.139 303.436 403.566 311.862 413.961 311.862H428.986C439.382 311.862 447.809 303.436 447.809 293.043C447.809 282.649 439.382 274.224 428.986 274.224Z" fill="#F0F4F6"/>
<path d="M145 187.766H382V267.252C382 273.88 376.627 279.252 370 279.252H157C150.373 279.252 145 273.88 145 267.252V187.766Z" fill="#00509B"/>
<path d="M164.45 187.766H362.551V204.675C362.551 226.766 344.642 244.675 322.551 244.675H204.45C182.359 244.675 164.45 226.766 164.45 204.675V187.766Z" fill="#00427D"/>
<path d="M190.383 256.158C190.383 253.397 192.621 251.158 195.383 251.158H331.617C334.378 251.158 336.617 253.397 336.617 256.158V281.413H190.383V256.158Z" fill="#053967"/>
<path d="M190.383 176.24C190.383 173.853 192.318 171.918 194.705 171.918H332.295C334.682 171.918 336.617 173.853 336.617 176.24H190.383Z" fill="#083F70"/>
<circle cx="346.342" cy="204.695" r="6.1231" fill="#F69F0A"/>
<circle cx="348.503" cy="202.533" r="1.80091" fill="white"/>
<path d="M192.544 268.447H334.456L351.618 318.478C353.622 324.32 349.281 330.398 343.105 330.398H184.186C178.03 330.398 173.691 324.356 175.658 318.522L192.544 268.447Z" fill="#1E73C2"/>
<path d="M198.336 268.447H328.664L344.541 318.152H182.459L198.336 268.447Z" fill="white"/>
<path d="M198.292 172H329.438L332 113H195L198.292 172Z" fill="#87C0F7"/>
<path d="M203.051 172H324.625L327 118H200L203.051 172Z" fill="white"/>
<path d="M145 188.24C145 181.613 150.373 176.24 157 176.24H370C376.627 176.24 382 181.613 382 188.24V192.808H145V188.24Z" fill="#00509B"/>
<path d="M150.426 402.03C150.426 404.04 149.016 405.21 146.706 405.21H142.086V398.7H146.586C148.866 398.7 150.426 399.96 150.426 402.03ZM149.886 392.94C149.886 394.86 148.536 395.91 146.316 395.91H142.086V389.94H146.316C148.536 389.94 149.886 391.05 149.886 392.94ZM153.846 402.39C153.846 399.9 152.046 397.68 149.826 397.29C151.836 396.57 153.366 395.04 153.366 392.52C153.366 389.58 151.026 387.15 146.616 387.15H138.666V408H147.006C151.266 408 153.846 405.57 153.846 402.39ZM164.523 394.08C167.073 394.08 169.083 395.7 169.143 398.25H159.993C160.353 395.64 162.213 394.08 164.523 394.08ZM172.262 403.08H168.573C167.943 404.37 166.773 405.39 164.673 405.39C162.153 405.39 160.203 403.74 159.963 401.01H172.593C172.683 400.44 172.713 399.9 172.713 399.33C172.713 394.47 169.383 391.2 164.673 391.2C159.783 391.2 156.423 394.53 156.423 399.72C156.423 404.91 159.933 408.27 164.673 408.27C168.723 408.27 171.333 405.96 172.262 403.08ZM179.498 399.3C179.498 395.79 181.058 394.74 183.578 394.74H184.448V391.2C182.108 391.2 180.458 392.22 179.498 393.87V391.47H176.078V408H179.498V399.3ZM187.592 408H191.012V398.76C191.012 395.73 192.662 394.17 195.182 394.17C197.672 394.17 199.322 395.73 199.322 398.76V408H202.712V398.25C202.712 393.63 199.832 391.2 196.142 391.2C194.012 391.2 192.152 392.01 191.012 393.39V385.8H187.592V408ZM205.934 399.66C205.934 404.76 209.384 408.27 213.674 408.27C216.434 408.27 218.414 406.95 219.464 405.54V408H222.914V391.47H219.464V393.87C218.444 392.52 216.524 391.2 213.734 391.2C209.384 391.2 205.934 394.56 205.934 399.66ZM219.464 399.72C219.464 403.29 217.034 405.3 214.454 405.3C211.904 405.3 209.444 403.23 209.444 399.66C209.444 396.09 211.904 394.17 214.454 394.17C217.034 394.17 219.464 396.18 219.464 399.72ZM239.736 403.38C239.556 397.41 230.226 399.27 230.226 395.94C230.226 394.83 231.186 394.08 233.016 394.08C234.876 394.08 235.986 395.07 236.106 396.51H239.526C239.346 393.21 236.886 391.2 233.136 391.2C229.236 391.2 226.776 393.33 226.776 395.97C226.776 402.03 236.376 400.17 236.376 403.41C236.376 404.55 235.326 405.39 233.346 405.39C231.456 405.39 230.166 404.28 230.046 402.93H226.506C226.656 405.93 229.446 408.27 233.406 408.27C237.306 408.27 239.736 406.17 239.736 403.38ZM243.432 408H246.852V391.47H243.432V408ZM245.172 389.28C246.372 389.28 247.332 388.32 247.332 387.09C247.332 385.86 246.372 384.9 245.172 384.9C243.942 384.9 242.982 385.86 242.982 387.09C242.982 388.32 243.942 389.28 245.172 389.28ZM251.342 408H254.762V385.8H251.342V408ZM273.855 387.15H267.045V408H273.855C280.545 408 284.925 404.07 284.925 397.65C284.925 391.2 280.545 387.15 273.855 387.15ZM270.465 405.21V389.94H273.855C278.775 389.94 281.415 392.88 281.415 397.65C281.415 402.39 278.775 405.21 273.855 405.21H270.465ZM288.314 408H291.734V391.47H288.314V408ZM290.054 389.28C291.254 389.28 292.214 388.32 292.214 387.09C292.214 385.86 291.254 384.9 290.054 384.9C288.824 384.9 287.864 385.86 287.864 387.09C287.864 388.32 288.824 389.28 290.054 389.28ZM295.085 399.72C295.085 404.91 298.445 408.27 303.185 408.27C307.235 408.27 309.875 406.02 310.805 402.78H307.115C306.485 404.49 305.225 405.39 303.185 405.39C300.425 405.39 298.595 403.35 298.595 399.72C298.595 396.12 300.425 394.08 303.185 394.08C305.225 394.08 306.545 395.1 307.115 396.69H310.805C309.875 393.21 307.235 391.2 303.185 391.2C298.445 391.2 295.085 394.56 295.085 399.72ZM321.173 394.08C323.723 394.08 325.733 395.7 325.793 398.25H316.643C317.003 395.64 318.863 394.08 321.173 394.08ZM328.913 403.08H325.223C324.593 404.37 323.423 405.39 321.323 405.39C318.803 405.39 316.853 403.74 316.613 401.01H329.243C329.333 400.44 329.363 399.9 329.363 399.33C329.363 394.47 326.033 391.2 321.323 391.2C316.433 391.2 313.073 394.53 313.073 399.72C313.073 404.91 316.583 408.27 321.323 408.27C325.373 408.27 327.983 405.96 328.913 403.08ZM333.269 403.41C333.269 406.77 335.099 408 338.039 408H340.739V405.15H338.639C337.199 405.15 336.719 404.64 336.719 403.41V394.26H340.739V391.47H336.719V387.36H333.269V391.47H331.319V394.26H333.269V403.41ZM342.751 399.66C342.751 404.76 346.201 408.27 350.491 408.27C353.251 408.27 355.231 406.95 356.281 405.54V408H359.731V391.47H356.281V393.87C355.261 392.52 353.341 391.2 350.551 391.2C346.201 391.2 342.751 394.56 342.751 399.66ZM356.281 399.72C356.281 403.29 353.851 405.3 351.271 405.3C348.721 405.3 346.261 403.23 346.261 399.66C346.261 396.09 348.721 394.17 351.271 394.17C353.851 394.17 356.281 396.18 356.281 399.72ZM364.223 408H367.643V400.89L373.763 408H378.383L370.763 399.75L378.383 391.47H373.643L367.643 398.7V385.8H364.223V408Z" fill="#40B703"/>
<circle cx="326.5" cy="117.5" r="23.5" fill="#40B703" stroke="#F8FDFF" stroke-width="4"/>
<path d="M318 117.882L324.488 126L335 112" stroke="white" stroke-width="3" stroke-linecap="round" stroke-linejoin="round"/>
<defs>
<filter id="filter0_d" x="0" y="0" width="520" height="520" filterUnits="userSpaceOnUse" color-interpolation-filters="sRGB">
<feFlood flood-opacity="0" result="BackgroundImageFix"/>
<feColorMatrix in="SourceAlpha" type="matrix" values="0 0 0 0 0 0 0 0 0 0 0 0 0 0 0 0 0 0 127 0"/>
<feOffset dy="4"/>
<feGaussianBlur stdDeviation="6"/>
<feColorMatrix type="matrix" values="0 0 0 0 0 0 0 0 0 0 0 0 0 0 0 0 0 0 0.08 0"/>
<feBlend mode="normal" in2="BackgroundImageFix" result="effect1_dropShadow"/>
<feBlend mode="normal" in="SourceGraphic" in2="effect1_dropShadow" result="shape"/>
</filter>
</defs>
</svg>
