<svg width="1920" height="1080" viewBox="0 0 1920 1080" fill="none" xmlns="http://www.w3.org/2000/svg">
<rect width="1920" height="1080" fill="url(#paint0_linear)"/>
<g opacity="0.5">
<mask id="mask0" mask-type="alpha" maskUnits="userSpaceOnUse" x="-1" y="791" width="581" height="290">
<path d="M580 1080.41C542.678 1057.7 476.252 1029.37 365 1001.5C171.757 953.09 41.5928 841.961 -0.5 791.214V1080.41H580Z" fill="#C4C4C4"/>
</mask>
<g mask="url(#mask0)">
<path d="M-2.99991 788C-2.99991 788 134.484 933.049 306.339 976.964C487.061 1023.18 87.3611 977.165 87.3611 977.165L-2.9003 877.13L-2.99991 788Z" fill="url(#paint1_linear)"/>
<path d="M612 1080.4C612 1080.4 422.411 994.37 264.105 975.964C105.799 957.558 -0.900391 860.725 -0.900391 860.725L-0.701111 1081L612 1080.4Z" fill="url(#paint2_linear)"/>
</g>
</g>
<defs>
<linearGradient id="paint0_linear" x1="959.334" y1="1080" x2="959.334" y2="599.109" gradientUnits="userSpaceOnUse">
<stop stop-color="#EAF3FF"/>
<stop offset="1" stop-color="#F9FBFF"/>
</linearGradient>
<linearGradient id="paint1_linear" x1="175.025" y1="787.834" x2="175.22" y2="997.709" gradientUnits="userSpaceOnUse">
<stop stop-color="#F7931E"/>
<stop offset="1" stop-color="#0048AB"/>
</linearGradient>
<linearGradient id="paint2_linear" x1="305.447" y1="860.45" x2="305.651" y2="1080.7" gradientUnits="userSpaceOnUse">
<stop stop-color="#F7931E"/>
<stop offset="1" stop-color="#0048AB"/>
</linearGradient>
</defs>
</svg>
