<svg width="213" height="213" viewBox="0 0 213 213" fill="none" xmlns="http://www.w3.org/2000/svg">
<path d="M213 106.5C213 165.318 165.318 213 106.5 213C47.6817 213 0 165.318 0 106.5C0 47.6817 47.6817 0 106.5 0C165.318 0 213 47.6817 213 106.5Z" fill="#EBF4FF"/>
<path d="M41.4829 71.9703C41.4829 67.7367 45.0646 64.3047 49.4829 64.3047H169C173.418 64.3047 177 67.7367 177 71.9703L174 148.334C174 152.568 170.418 156 166 156H46.4829C42.0646 156 38.4829 152.568 38.4829 148.334L41.4829 71.9703Z" fill="#94C7F7"/>
<path d="M40.8715 71.475C41.2171 67.4221 44.6832 64.3047 48.8439 64.3047H168.306C172.986 64.3047 176.667 68.2147 176.278 72.7737L169.135 144.83C168.789 148.883 165.323 152 161.163 152H41.7007C37.0204 152 33.3397 148.09 33.7284 143.531L40.8715 71.475Z" fill="#58A0E3"/>
<path d="M40.3239 70.9252C40.994 67.0973 44.318 64.3047 48.2041 64.3047H167.478C172.448 64.3047 176.215 68.7887 175.358 73.6842L163.683 140.379C163.013 144.207 159.689 147 155.802 147H36.5285C31.5586 147 27.7914 142.516 28.6484 137.621L40.3239 70.9252Z" fill="#00509B"/>
<mask id="mask0" mask-type="alpha" maskUnits="userSpaceOnUse" x="28" y="64" width="148" height="83">
<path d="M40.3278 70.9206C40.9979 67.0927 44.3219 64.3 48.208 64.3H167.482C172.452 64.3 176.219 68.784 175.362 73.6795L163.687 140.375C163.016 144.203 159.692 146.995 155.806 146.995H36.5324C31.5625 146.995 27.7953 142.511 28.6523 137.616L40.3278 70.9206Z" fill="#00509B"/>
</mask>
<g mask="url(#mask0)">
<path d="M165.502 132.3C124.502 103.8 51.5324 109.12 31.002 123.3L28.502 137.8C72.5199 99.7088 151.201 124.085 164.504 135.995L165.502 132.3Z" fill="#004481"/>
<path d="M163.502 142.3C109.317 105.773 49.0054 127.238 29.5017 142.8L29.5018 147.3L41.0037 146.995C86.0036 111.495 147.409 133.836 161.502 144.8L163.502 142.3Z" fill="#004481"/>
</g>
<path d="M132 134.5C131.172 134.5 130.5 135.172 130.5 136C130.5 136.828 131.172 137.5 132 137.5V134.5ZM156 137.5C156.828 137.5 157.5 136.828 157.5 136C157.5 135.172 156.828 134.5 156 134.5V137.5ZM132 137.5H156V134.5H132V137.5Z" fill="white"/>
<path d="M139 128.5C138.172 128.5 137.5 129.172 137.5 130C137.5 130.828 138.172 131.5 139 131.5V128.5ZM157 131.5C157.828 131.5 158.5 130.828 158.5 130C158.5 129.172 157.828 128.5 157 128.5V131.5ZM139 131.5H157V128.5H139V131.5Z" fill="white"/>
<ellipse cx="161" cy="76.5" rx="5" ry="4.5" fill="#FFD232"/>
</svg>
