<svg width="519" height="272" viewBox="0 0 519 272" fill="none" xmlns="http://www.w3.org/2000/svg">
<path d="M56.6347 44.9028H25.8088C11.555 44.9028 0 56.4556 0 70.7066C0 84.9577 11.555 96.5105 25.8088 96.5105H56.6347C70.8885 96.5105 82.4435 84.9577 82.4435 70.7066C82.4435 56.4556 70.8885 44.9028 56.6347 44.9028Z" fill="#F0F4F6"/>
<path d="M268.343 271.662C343.361 271.662 404.174 210.848 404.174 135.831C404.174 60.8135 343.361 0 268.343 0C193.326 0 132.513 60.8135 132.513 135.831C132.513 210.848 193.326 271.662 268.343 271.662Z" fill="#F0F4F6"/>
<path d="M163.882 44.9028H133.056C118.802 44.9028 107.247 56.4556 107.247 70.7066C107.247 84.9577 118.802 96.5105 133.056 96.5105H163.882C178.136 96.5105 189.691 84.9577 189.691 70.7066C189.691 56.4556 178.136 44.9028 163.882 44.9028Z" fill="#F0F4F6"/>
<path d="M444.722 119.343H87.8118C73.5579 119.343 62.0029 130.895 62.0029 145.146C62.0029 159.397 73.5579 170.95 87.8118 170.95H444.722C458.976 170.95 470.531 159.397 470.531 145.146C470.531 130.895 458.976 119.343 444.722 119.343Z" fill="#F0F4F6"/>
<path d="M492.811 201.082H472.21C457.956 201.082 446.401 212.635 446.401 226.886C446.401 241.137 457.956 252.689 472.21 252.689H492.811C507.065 252.689 518.62 241.137 518.62 226.886C518.62 212.635 507.065 201.082 492.811 201.082Z" fill="#F0F4F6"/>
<rect x="109.62" y="38.1958" width="318" height="202" rx="8" fill="url(#paint0_linear)"/>
<rect x="133.62" y="196.196" width="50" height="27" rx="2" fill="white"/>
<rect x="168.62" y="187.196" width="4" height="42" fill="#0D68BB"/>
<path d="M292.834 240.196C223.384 190.994 252.967 85.6949 276.44 39.1958H306.62C240.747 140.898 279.173 215.572 306.62 240.196H292.834Z" fill="#084D8C"/>
<path d="M330.076 240.196C261.844 190.994 290.909 85.6949 313.97 39.1958H343.62C278.902 140.898 316.654 215.572 343.62 240.196H330.076Z" fill="#084D8C"/>
<defs>
<linearGradient id="paint0_linear" x1="427.62" y1="139.196" x2="109.62" y2="139.196" gradientUnits="userSpaceOnUse">
<stop stop-color="#00509B"/>
<stop offset="1" stop-color="#106EC5"/>
</linearGradient>
</defs>
</svg>
