<svg width="553" height="394" viewBox="0 0 553 394" fill="none" xmlns="http://www.w3.org/2000/svg">
<path d="M60.3387 94.8395H27.4968C12.3107 94.8395 0 107.148 0 122.331C0 137.514 12.3107 149.822 27.4968 149.822H60.3387C75.5248 149.822 87.8355 137.514 87.8355 122.331C87.8355 107.148 75.5248 94.8395 60.3387 94.8395Z" fill="#E5EEF2"/>
<path d="M285.893 336.429C365.816 336.429 430.607 271.638 430.607 191.714C430.607 111.791 365.816 47 285.893 47C205.969 47 141.179 111.791 141.179 191.714C141.179 271.638 205.969 336.429 285.893 336.429Z" fill="#E5EEF2"/>
<path d="M174.6 94.8395H141.759C126.572 94.8395 114.262 107.148 114.262 122.331C114.262 137.514 126.572 149.822 141.759 149.822H174.6C189.787 149.822 202.097 137.514 202.097 122.331C202.097 107.148 189.787 94.8395 174.6 94.8395Z" fill="#E5EEF2"/>
<path d="M473.808 174.148H93.5549C78.3688 174.148 66.0581 186.456 66.0581 201.639C66.0581 216.822 78.3688 229.131 93.5549 229.131H473.808C488.994 229.131 501.304 216.822 501.304 201.639C501.304 186.456 488.994 174.148 473.808 174.148Z" fill="#E5EEF2"/>
<path d="M525.042 261.233H503.094C487.908 261.233 475.597 273.541 475.597 288.724C475.597 303.908 487.908 316.216 503.094 316.216H525.042C540.228 316.216 552.538 303.908 552.538 288.724C552.538 273.541 540.228 261.233 525.042 261.233Z" fill="#E5EEF2"/>
<path d="M248.761 64.5C265.312 35.8334 306.688 35.8333 323.239 64.5L419.368 231C435.919 259.667 415.23 295.5 382.129 295.5H189.871C156.77 295.5 136.081 259.667 152.632 231L248.761 64.5Z" fill="#00509B"/>
<path d="M302.524 136.667C302.524 142.694 301.915 150.39 300.696 159.752C299.478 169.051 297.714 181.171 295.406 196.113L293.674 207.175C293.61 207.624 293.482 208.778 293.29 210.638C293.161 212.497 292.841 214.165 292.328 215.64C291.879 217.05 291.237 217.756 290.404 217.756C289.25 217.756 288.448 217.05 287.999 215.64C287.614 214.229 287.358 212.85 287.229 211.503C287.165 210.093 287.101 209.163 287.037 208.714C286.716 205.956 286.203 202.397 285.498 198.037C284.857 193.612 284.376 190.438 284.055 188.514C282.067 175.624 280.528 165.171 279.438 157.155C278.412 149.075 277.899 142.181 277.899 136.474C277.899 132.691 278.925 129.965 280.977 128.298C283.093 126.631 286.107 125.797 290.019 125.797C293.738 125.797 296.752 126.695 299.061 128.49C301.37 130.286 302.524 133.011 302.524 136.667ZM290.404 231.223C292.52 231.223 294.476 231.768 296.271 232.858C298.131 233.948 299.606 235.423 300.696 237.283C301.786 239.078 302.332 241.034 302.332 243.15C302.332 246.421 301.145 249.178 298.772 251.423C296.464 253.667 293.674 254.79 290.404 254.79C287.197 254.79 284.44 253.667 282.131 251.423C279.887 249.114 278.765 246.357 278.765 243.15C278.765 239.88 279.887 237.09 282.131 234.782C284.376 232.409 287.133 231.223 290.404 231.223Z" fill="#FFD232"/>
</svg>
