<svg width="133" height="86" viewBox="0 0 133 86" fill="none" xmlns="http://www.w3.org/2000/svg">
<rect y="11" width="119.319" height="74.7478" rx="5" fill="#00509B"/>
<rect y="27" width="119" height="12" fill="black"/>
<rect x="8" y="67" width="55" height="3" rx="1.5" fill="white"/>
<rect x="8" y="74" width="55" height="3" rx="1.5" fill="white"/>
<circle cx="116.5" cy="16.5" r="15" fill="#FDCE26" stroke="#F8FDFF" stroke-width="3"/>
<path d="M118.506 9.006L118.066 19.544H114.876L114.436 9.006H118.506ZM116.526 25.176C115.866 25.176 115.324 24.9853 114.898 24.604C114.488 24.208 114.282 23.724 114.282 23.152C114.282 22.5653 114.488 22.074 114.898 21.678C115.324 21.282 115.866 21.084 116.526 21.084C117.172 21.084 117.7 21.282 118.11 21.678C118.536 22.074 118.748 22.5653 118.748 23.152C118.748 23.724 118.536 24.208 118.11 24.604C117.7 24.9853 117.172 25.176 116.526 25.176Z" fill="white"/>
</svg>
