<svg width="403" height="251" viewBox="0 0 403 251" fill="none" xmlns="http://www.w3.org/2000/svg">
<g filter="url(#filter0_d)">
<rect x="22" y="18" width="331" height="198" rx="12" fill="#00509B"/>
</g>
<rect x="47.6387" y="151.009" width="56.002" height="35.0856" rx="5" fill="white"/>
<rect x="88.123" y="144.261" width="4.04834" height="47.2306" fill="#00509B"/>
<path d="M213.823 215.964C133.257 167.737 167.576 64.5233 194.805 18.9451H229.815C153.399 118.633 197.975 191.828 229.815 215.964H213.823Z" fill="#004481"/>
<path d="M258.353 215.964C177.788 167.737 212.106 64.5233 239.336 18.9451H274.346C197.929 118.633 242.505 191.828 274.346 215.964H258.353Z" fill="#004481"/>
<path d="M306.758 175.927C307.024 168.728 313.002 163.029 320.206 163.029C326.138 163.029 331.397 159.084 333.004 153.373C334.504 148.04 339.165 144.204 344.687 143.759L361.473 142.405C364.735 142.142 367.993 142.953 370.751 144.713L392.844 158.817C396.977 161.456 399.56 165.95 399.76 170.85L402.364 234.771C402.711 243.288 395.9 250.382 387.376 250.382H319.566C311.064 250.382 304.261 243.323 304.576 234.827L306.758 175.927Z" fill="white"/>
<path d="M320.118 166.461C320.118 155.461 324.012 132.814 351.824 132.814C374.63 132.814 383.53 149.314 383.53 166.461" stroke="white" stroke-width="11"/>
<circle cx="351.824" cy="218.895" r="7.11765" fill="white"/>
<path d="M349.847 220.137C349.978 219.009 350.933 218.159 352.069 218.159C353.204 218.159 354.159 219.009 354.291 220.137L355.661 231.88C355.869 233.663 354.476 235.228 352.681 235.228H351.456C349.662 235.228 348.269 233.663 348.476 231.88L349.847 220.137Z" fill="white"/>
<path d="M312.308 180.876C312.607 172.814 319.23 166.432 327.298 166.432H379.471C387.518 166.432 394.131 172.781 394.459 180.821L396.364 227.586C396.711 236.102 389.9 243.196 381.376 243.196H325.566C317.064 243.196 310.261 236.137 310.576 227.641L312.308 180.876Z" fill="#FFD232"/>
<path d="M325.922 168.569C325.922 158.902 329.344 139 353.785 139C373.826 139 381.647 153.5 381.647 168.569" stroke="#FFD232" stroke-width="11"/>
<circle cx="353.784" cy="214.647" r="6.2549" fill="#F0F4F6"/>
<path d="M352.047 215.738C352.163 214.747 353.002 214 354 214C354.998 214 355.837 214.747 355.953 215.738L357.109 225.652C357.317 227.435 355.924 229 354.13 229H353.87C352.076 229 350.683 227.435 350.891 225.652L352.047 215.738Z" fill="#F0F4F6"/>
<path d="M328.954 179.71L330.186 181.954L327.48 182.9L330.186 183.824L328.866 186.156L326.666 184.22L327.216 187.08H324.642L325.17 184.22L322.992 186.178L321.628 183.802L324.334 182.856L321.65 181.976L322.904 179.71L325.192 181.624L324.62 178.72H327.238L326.666 181.624L328.954 179.71ZM340.706 179.71L341.938 181.954L339.232 182.9L341.938 183.824L340.618 186.156L338.418 184.22L338.968 187.08H336.394L336.922 184.22L334.744 186.178L333.38 183.802L336.086 182.856L333.402 181.976L334.656 179.71L336.944 181.624L336.372 178.72H338.99L338.418 181.624L340.706 179.71ZM352.458 179.71L353.69 181.954L350.984 182.9L353.69 183.824L352.37 186.156L350.17 184.22L350.72 187.08H348.146L348.674 184.22L346.496 186.178L345.132 183.802L347.838 182.856L345.154 181.976L346.408 179.71L348.696 181.624L348.124 178.72H350.742L350.17 181.624L352.458 179.71Z" fill="#977910"/>
<defs>
<filter id="filter0_d" x="0" y="0" width="375" height="242" filterUnits="userSpaceOnUse" color-interpolation-filters="sRGB">
<feFlood flood-opacity="0" result="BackgroundImageFix"/>
<feColorMatrix in="SourceAlpha" type="matrix" values="0 0 0 0 0 0 0 0 0 0 0 0 0 0 0 0 0 0 127 0"/>
<feOffset dy="4"/>
<feGaussianBlur stdDeviation="11"/>
<feColorMatrix type="matrix" values="0 0 0 0 0 0 0 0 0 0 0 0 0 0 0 0 0 0 0.12 0"/>
<feBlend mode="normal" in2="BackgroundImageFix" result="effect1_dropShadow"/>
<feBlend mode="normal" in="SourceGraphic" in2="effect1_dropShadow" result="shape"/>
</filter>
</defs>
</svg>
