<svg width="553" height="290" viewBox="0 0 553 290" fill="none" xmlns="http://www.w3.org/2000/svg">
<path d="M60.3387 47.8395H27.4968C12.3107 47.8395 0 60.1478 0 75.3309C0 90.514 12.3107 102.822 27.4968 102.822H60.3387C75.5248 102.822 87.8355 90.514 87.8355 75.3309C87.8355 60.1478 75.5248 47.8395 60.3387 47.8395Z" fill="#E5EEF2"/>
<path d="M285.893 289.429C365.816 289.429 430.607 224.638 430.607 144.714C430.607 64.7908 365.816 0 285.893 0C205.969 0 141.178 64.7908 141.178 144.714C141.178 224.638 205.969 289.429 285.893 289.429Z" fill="#E5EEF2"/>
<path d="M174.6 47.8395H141.759C126.572 47.8395 114.262 60.1478 114.262 75.3309C114.262 90.514 126.572 102.822 141.759 102.822H174.6C189.787 102.822 202.097 90.514 202.097 75.3309C202.097 60.1478 189.787 47.8395 174.6 47.8395Z" fill="#E5EEF2"/>
<path d="M473.808 127.148H93.5549C78.3688 127.148 66.0581 139.456 66.0581 154.639C66.0581 169.822 78.3688 182.131 93.5549 182.131H473.808C488.994 182.131 501.304 169.822 501.304 154.639C501.304 139.456 488.994 127.148 473.808 127.148Z" fill="#E5EEF2"/>
<path d="M525.042 214.233H503.094C487.907 214.233 475.597 226.541 475.597 241.724C475.597 256.908 487.907 269.216 503.094 269.216H525.042C540.228 269.216 552.538 256.908 552.538 241.724C552.538 226.541 540.228 214.233 525.042 214.233Z" fill="#E5EEF2"/>
<rect x="155" y="68" width="261" height="163.125" rx="8" fill="url(#paint0_linear)"/>
<rect x="155" y="95" width="261" height="27" fill="black"/>
<path d="M295.359 148.797C295.359 151.734 295.062 155.484 294.469 160.047C293.875 164.578 293.016 170.484 291.891 177.766L291.047 183.156C291.016 183.375 290.953 183.938 290.859 184.844C290.797 185.75 290.641 186.562 290.391 187.281C290.172 187.969 289.859 188.312 289.453 188.312C288.891 188.312 288.5 187.969 288.281 187.281C288.094 186.594 287.969 185.922 287.906 185.266C287.875 184.578 287.844 184.125 287.812 183.906C287.656 182.562 287.406 180.828 287.062 178.703C286.75 176.547 286.516 175 286.359 174.062C285.391 167.781 284.641 162.688 284.109 158.781C283.609 154.844 283.359 151.484 283.359 148.703C283.359 146.859 283.859 145.531 284.859 144.719C285.891 143.906 287.359 143.5 289.266 143.5C291.078 143.5 292.547 143.938 293.672 144.812C294.797 145.688 295.359 147.016 295.359 148.797ZM289.453 194.875C290.484 194.875 291.438 195.141 292.312 195.672C293.219 196.203 293.938 196.922 294.469 197.828C295 198.703 295.266 199.656 295.266 200.688C295.266 202.281 294.688 203.625 293.531 204.719C292.406 205.812 291.047 206.359 289.453 206.359C287.891 206.359 286.547 205.812 285.422 204.719C284.328 203.594 283.781 202.25 283.781 200.688C283.781 199.094 284.328 197.734 285.422 196.609C286.516 195.453 287.859 194.875 289.453 194.875Z" fill="#FFD232"/>
<defs>
<linearGradient id="paint0_linear" x1="416" y1="150.125" x2="155" y2="150.125" gradientUnits="userSpaceOnUse">
<stop stop-color="#00529C"/>
<stop offset="1" stop-color="#0C6AC2"/>
</linearGradient>
</defs>
</svg>
