<svg width="520" height="520" viewBox="0 0 520 520" fill="none" xmlns="http://www.w3.org/2000/svg">
<g filter="url(#filter0_d)">
<circle cx="260" cy="256" r="248" fill="#F8FDFF"/>
</g>
<path d="M114.876 189.748H92.3941C81.9985 189.748 73.5713 198.174 73.5713 208.567C73.5713 218.961 81.9985 227.387 92.3941 227.387H114.876C125.271 227.387 133.699 218.961 133.699 208.567C133.699 198.174 125.271 189.748 114.876 189.748Z" fill="#F0F4F6"/>
<path d="M269.278 355.127C323.99 355.127 368.342 310.775 368.342 256.063C368.342 201.352 323.99 157 269.278 157C214.567 157 170.215 201.352 170.215 256.063C170.215 310.775 214.567 355.127 269.278 355.127Z" fill="#F0F4F6"/>
<path d="M193.093 189.748H170.611C160.215 189.748 151.788 198.174 151.788 208.567C151.788 218.961 160.215 227.387 170.611 227.387H193.093C203.488 227.387 211.915 218.961 211.915 208.567C211.915 198.174 203.488 189.748 193.093 189.748Z" fill="#F0F4F6"/>
<path d="M397.914 244.038H137.614C127.218 244.038 118.791 252.464 118.791 262.857C118.791 273.251 127.218 281.677 137.614 281.677H397.914C408.309 281.677 416.737 273.251 416.737 262.857C416.737 252.464 408.309 244.038 397.914 244.038Z" fill="#F0F4F6"/>
<path d="M432.986 303.652H417.961C407.566 303.652 399.139 312.078 399.139 322.471C399.139 332.865 407.566 341.29 417.961 341.29H432.986C443.382 341.29 451.809 332.865 451.809 322.471C451.809 312.078 443.382 303.652 432.986 303.652Z" fill="#F0F4F6"/>
<circle cx="262.5" cy="255.5" r="121.5" fill="#00529C"/>
<circle cx="263" cy="256" r="105.5" stroke="#FFD232" stroke-width="7"/>
<circle cx="263" cy="256" r="9" fill="#FFD232"/>
<line x1="262.475" y1="256.475" x2="219.475" y2="299.475" stroke="#FFD232" stroke-width="7"/>
<line x1="262.5" y1="254" x2="262.5" y2="165" stroke="#FFD232" stroke-width="7"/>
<circle cx="346" cy="134" r="35" fill="#FF6533" stroke="#00529C" stroke-width="6"/>
<path d="M350.395 114.848C350.395 117.051 350.172 119.863 349.727 123.285C349.281 126.684 348.637 131.113 347.793 136.574L347.16 140.617C347.137 140.781 347.09 141.203 347.02 141.883C346.973 142.562 346.855 143.172 346.668 143.711C346.504 144.227 346.27 144.484 345.965 144.484C345.543 144.484 345.25 144.227 345.086 143.711C344.945 143.195 344.852 142.691 344.805 142.199C344.781 141.684 344.758 141.344 344.734 141.18C344.617 140.172 344.43 138.871 344.172 137.277C343.938 135.66 343.762 134.5 343.645 133.797C342.918 129.086 342.355 125.266 341.957 122.336C341.582 119.383 341.395 116.863 341.395 114.777C341.395 113.395 341.77 112.398 342.52 111.789C343.293 111.18 344.395 110.875 345.824 110.875C347.184 110.875 348.285 111.203 349.129 111.859C349.973 112.516 350.395 113.512 350.395 114.848ZM345.965 149.406C346.738 149.406 347.453 149.605 348.109 150.004C348.789 150.402 349.328 150.941 349.727 151.621C350.125 152.277 350.324 152.992 350.324 153.766C350.324 154.961 349.891 155.969 349.023 156.789C348.18 157.609 347.16 158.02 345.965 158.02C344.793 158.02 343.785 157.609 342.941 156.789C342.121 155.945 341.711 154.938 341.711 153.766C341.711 152.57 342.121 151.551 342.941 150.707C343.762 149.84 344.77 149.406 345.965 149.406Z" fill="#00529C"/>
<defs>
<filter id="filter0_d" x="0" y="0" width="520" height="520" filterUnits="userSpaceOnUse" color-interpolation-filters="sRGB">
<feFlood flood-opacity="0" result="BackgroundImageFix"/>
<feColorMatrix in="SourceAlpha" type="matrix" values="0 0 0 0 0 0 0 0 0 0 0 0 0 0 0 0 0 0 127 0"/>
<feOffset dy="4"/>
<feGaussianBlur stdDeviation="6"/>
<feColorMatrix type="matrix" values="0 0 0 0 0 0 0 0 0 0 0 0 0 0 0 0 0 0 0.08 0"/>
<feBlend mode="normal" in2="BackgroundImageFix" result="effect1_dropShadow"/>
<feBlend mode="normal" in="SourceGraphic" in2="effect1_dropShadow" result="shape"/>
</filter>
</defs>
</svg>
