<svg width="520" height="520" viewBox="0 0 520 520" fill="none" xmlns="http://www.w3.org/2000/svg">
<g filter="url(#filter0_d)">
<circle cx="260" cy="256" r="248" fill="#F8FDFF"/>
</g>
<path d="M114.876 154.32H92.3941C81.9985 154.32 73.5713 162.745 73.5713 173.139C73.5713 183.532 81.9985 191.958 92.3941 191.958H114.876C125.271 191.958 133.699 183.532 133.699 173.139C133.699 162.745 125.271 154.32 114.876 154.32Z" fill="#F0F4F6"/>
<path d="M269.278 319.698C323.99 319.698 368.342 275.346 368.342 220.635C368.342 165.924 323.99 121.571 269.278 121.571C214.567 121.571 170.215 165.924 170.215 220.635C170.215 275.346 214.567 319.698 269.278 319.698Z" fill="#F0F4F6"/>
<path d="M193.093 154.32H170.611C160.215 154.32 151.788 162.745 151.788 173.139C151.788 183.532 160.215 191.958 170.611 191.958H193.093C203.488 191.958 211.915 183.532 211.915 173.139C211.915 162.745 203.488 154.32 193.093 154.32Z" fill="#F0F4F6"/>
<path d="M397.914 208.61H137.614C127.218 208.61 118.791 217.035 118.791 227.429C118.791 237.822 127.218 246.248 137.614 246.248H397.914C408.309 246.248 416.737 237.822 416.737 227.429C416.737 217.035 408.309 208.61 397.914 208.61Z" fill="#F0F4F6"/>
<path d="M432.986 268.223H417.961C407.566 268.223 399.139 276.649 399.139 287.043C399.139 297.436 407.566 305.862 417.961 305.862H432.986C443.382 305.862 451.809 297.436 451.809 287.043C451.809 276.649 443.382 268.223 432.986 268.223Z" fill="#F0F4F6"/>
<rect x="158.184" y="194.811" width="200.92" height="128.087" rx="8" fill="#00529C"/>
<rect x="158.184" y="142.069" width="200.92" height="42.6956" rx="8" fill="#00529C"/>
<rect x="178.275" y="127" width="25.115" height="30.1381" rx="6" fill="#FFD232"/>
<rect x="316.409" y="127" width="25.115" height="30.1381" rx="6" fill="#FFD232"/>
<path d="M216.557 227.96H211.297V242H216.557C221.037 242 223.917 239.14 223.917 234.98C223.917 230.8 221.037 227.96 216.557 227.96ZM214.717 239.04V230.88H216.337C218.917 230.88 220.437 232.4 220.437 234.98C220.437 237.56 218.917 239.04 216.337 239.04H214.717ZM234.428 227.96H225.828V242H234.428V239.26H229.248V236.18H233.828V233.54H229.248V230.7H234.428V227.96ZM246.848 237.82C246.848 233.12 239.908 234.22 239.908 231.78C239.908 230.9 240.528 230.48 241.348 230.5C242.268 230.52 242.908 231.06 242.968 231.96H246.668C246.528 229.28 244.468 227.76 241.408 227.76C238.468 227.76 236.288 229.24 236.288 231.9C236.248 236.88 243.268 235.48 243.268 238.08C243.268 238.9 242.628 239.4 241.628 239.4C240.668 239.4 239.988 238.88 239.888 237.8H236.248C236.348 240.64 238.708 242.14 241.728 242.14C245.008 242.14 246.848 240.18 246.848 237.82ZM257.553 227.96H248.953V242H257.553V239.26H252.373V236.18H256.953V233.54H252.373V230.7H257.553V227.96ZM259.773 242H263.193V233.56L266.353 242H269.113L272.253 233.58V242H275.673V227.96H271.653L267.753 237.68L263.813 227.96H259.773V242ZM285.873 237.72C285.873 238.72 285.213 239.24 284.073 239.24H281.553V236.14H284.033C285.173 236.14 285.873 236.72 285.873 237.72ZM285.533 232.18C285.533 233.14 284.913 233.64 283.793 233.64H281.553V230.7H283.793C284.913 230.7 285.533 231.22 285.533 232.18ZM289.333 238.18C289.333 236.58 288.273 235.14 286.633 234.8C287.993 234.4 289.013 233.3 289.013 231.6C289.013 229.38 287.313 227.96 284.453 227.96H278.133V242H284.673C287.633 242 289.333 240.5 289.333 238.18ZM299.916 227.96H291.316V242H299.916V239.26H294.736V236.18H299.316V233.54H294.736V230.7H299.916V227.96ZM309.556 232.52C309.556 233.62 308.956 234.28 307.676 234.28H305.556V230.8H307.676C308.956 230.8 309.556 231.48 309.556 232.52ZM302.136 227.96V242H305.556V236.7H306.376L309.296 242H313.156L309.916 236.44C312.076 235.8 313.036 234.14 313.036 232.38C313.036 229.94 311.316 227.96 307.876 227.96H302.136Z" fill="white"/>
<path d="M214.615 292.6H234.695V287.04H223.895C228.535 283.48 234.255 278.36 234.255 271.96C234.255 267.04 231.295 263.16 224.655 263.16C219.335 263.16 214.735 266.2 214.535 273.28H221.135C221.135 270.52 222.335 268.92 224.375 268.92C226.455 268.92 227.415 270.28 227.415 272.4C227.415 277.32 220.815 282.4 214.615 287.52V292.6ZM237.706 278C237.706 286.64 240.626 292.88 248.946 292.88C257.266 292.88 260.186 286.64 260.186 278C260.186 269.44 257.266 263.2 248.946 263.2C240.626 263.2 237.706 269.44 237.706 278ZM253.466 278C253.466 282.64 252.986 286.48 248.946 286.48C244.906 286.48 244.426 282.64 244.426 278C244.426 273.52 244.906 269.6 248.946 269.6C252.986 269.6 253.466 273.52 253.466 278ZM263.56 292.6H283.64V287.04H272.84C277.48 283.48 283.2 278.36 283.2 271.96C283.2 267.04 280.24 263.16 273.6 263.16C268.28 263.16 263.68 266.2 263.48 273.28H270.08C270.08 270.52 271.28 268.92 273.32 268.92C275.4 268.92 276.36 270.28 276.36 272.4C276.36 277.32 269.76 282.4 263.56 287.52V292.6ZM286.652 278C286.652 286.64 289.572 292.88 297.892 292.88C306.212 292.88 309.132 286.64 309.132 278C309.132 269.44 306.212 263.2 297.892 263.2C289.572 263.2 286.652 269.44 286.652 278ZM302.412 278C302.412 282.64 301.932 286.48 297.892 286.48C293.852 286.48 293.372 282.64 293.372 278C293.372 273.52 293.852 269.6 297.892 269.6C301.932 269.6 302.412 273.52 302.412 278Z" fill="white"/>
<rect x="381.708" y="337.966" width="12.5575" height="100.46" rx="5" transform="rotate(90 381.708 337.966)" fill="#FF8832"/>
<path d="M401.16 343.827C401.462 344.024 401.462 344.466 401.16 344.664L370.527 364.693C370.114 364.963 369.6 364.533 369.794 364.079L378.22 344.245L369.794 324.412C369.6 323.957 370.114 323.528 370.527 323.798L401.16 343.827Z" fill="#FF8832"/>
<rect width="12.5575" height="100.46" rx="5" transform="matrix(4.37114e-08 1 1 -4.37114e-08 138.092 337.966)" fill="#FF8832"/>
<path d="M118.64 343.827C118.338 344.024 118.338 344.466 118.64 344.664L149.272 364.693C149.686 364.963 150.199 364.533 150.006 364.079L141.58 344.245L150.006 324.412C150.199 323.957 149.686 323.528 149.272 323.798L118.64 343.827Z" fill="#FF8832"/>
<defs>
<filter id="filter0_d" x="0" y="0" width="520" height="520" filterUnits="userSpaceOnUse" color-interpolation-filters="sRGB">
<feFlood flood-opacity="0" result="BackgroundImageFix"/>
<feColorMatrix in="SourceAlpha" type="matrix" values="0 0 0 0 0 0 0 0 0 0 0 0 0 0 0 0 0 0 127 0"/>
<feOffset dy="4"/>
<feGaussianBlur stdDeviation="6"/>
<feColorMatrix type="matrix" values="0 0 0 0 0 0 0 0 0 0 0 0 0 0 0 0 0 0 0.08 0"/>
<feBlend mode="normal" in2="BackgroundImageFix" result="effect1_dropShadow"/>
<feBlend mode="normal" in="SourceGraphic" in2="effect1_dropShadow" result="shape"/>
</filter>
</defs>
</svg>
