<svg width="520" height="520" viewBox="0 0 520 520" fill="none" xmlns="http://www.w3.org/2000/svg">
<g filter="url(#filter0_d)">
<circle cx="260" cy="256" r="248" fill="#F8FDFF"/>
</g>
<path d="M114.876 154.32H92.3941C81.9985 154.32 73.5713 162.745 73.5713 173.139C73.5713 183.532 81.9985 191.958 92.3941 191.958H114.876C125.271 191.958 133.699 183.532 133.699 173.139C133.699 162.745 125.271 154.32 114.876 154.32Z" fill="#F0F4F6"/>
<path d="M269.278 319.698C323.99 319.698 368.342 275.346 368.342 220.635C368.342 165.924 323.99 121.571 269.278 121.571C214.567 121.571 170.215 165.924 170.215 220.635C170.215 275.346 214.567 319.698 269.278 319.698Z" fill="#F0F4F6"/>
<path d="M193.093 154.32H170.611C160.215 154.32 151.788 162.745 151.788 173.139C151.788 183.532 160.215 191.958 170.611 191.958H193.093C203.488 191.958 211.915 183.532 211.915 173.139C211.915 162.745 203.488 154.32 193.093 154.32Z" fill="#F0F4F6"/>
<path d="M397.914 208.61H137.614C127.218 208.61 118.791 217.035 118.791 227.429C118.791 237.822 127.218 246.248 137.614 246.248H397.914C408.309 246.248 416.737 237.822 416.737 227.429C416.737 217.035 408.309 208.61 397.914 208.61Z" fill="#F0F4F6"/>
<path d="M432.986 268.224H417.961C407.566 268.224 399.139 276.649 399.139 287.043C399.139 297.436 407.566 305.862 417.961 305.862H432.986C443.382 305.862 451.809 297.436 451.809 287.043C451.809 276.649 443.382 268.224 432.986 268.224Z" fill="#F0F4F6"/>
<path d="M113.622 393.94H119.202V412H122.622V393.94H128.172V391.15H113.622V393.94ZM131.636 412H135.056V395.47H131.636V412ZM133.376 393.28C134.576 393.28 135.536 392.32 135.536 391.09C135.536 389.86 134.576 388.9 133.376 388.9C132.146 388.9 131.186 389.86 131.186 391.09C131.186 392.32 132.146 393.28 133.376 393.28ZM138.406 403.66C138.406 408.76 141.856 412.27 146.206 412.27C148.906 412.27 150.886 411.01 151.936 409.51V412H155.386V389.8H151.936V397.78C150.676 396.22 148.396 395.2 146.236 395.2C141.856 395.2 138.406 398.56 138.406 403.66ZM151.936 403.72C151.936 407.29 149.506 409.3 146.926 409.3C144.376 409.3 141.916 407.23 141.916 403.66C141.916 400.09 144.376 398.17 146.926 398.17C149.506 398.17 151.936 400.18 151.936 403.72ZM158.738 403.66C158.738 408.76 162.188 412.27 166.478 412.27C169.238 412.27 171.218 410.95 172.268 409.54V412H175.718V395.47H172.268V397.87C171.248 396.52 169.328 395.2 166.538 395.2C162.188 395.2 158.738 398.56 158.738 403.66ZM172.268 403.72C172.268 407.29 169.838 409.3 167.258 409.3C164.708 409.3 162.248 407.23 162.248 403.66C162.248 400.09 164.708 398.17 167.258 398.17C169.838 398.17 172.268 400.18 172.268 403.72ZM180.21 412H183.63V404.89L189.75 412H194.37L186.75 403.75L194.37 395.47H189.63L183.63 402.7V389.8H180.21V412ZM203.474 403.66C203.474 408.76 206.924 412.27 211.214 412.27C213.974 412.27 215.954 410.95 217.004 409.54V412H220.454V395.47H217.004V397.87C215.984 396.52 214.064 395.2 211.274 395.2C206.924 395.2 203.474 398.56 203.474 403.66ZM217.004 403.72C217.004 407.29 214.574 409.3 211.994 409.3C209.444 409.3 206.984 407.23 206.984 403.66C206.984 400.09 209.444 398.17 211.994 398.17C214.574 398.17 217.004 400.18 217.004 403.72ZM223.806 403.66C223.806 408.76 227.256 412.27 231.606 412.27C234.306 412.27 236.286 411.01 237.336 409.51V412H240.786V389.8H237.336V397.78C236.076 396.22 233.796 395.2 231.636 395.2C227.256 395.2 223.806 398.56 223.806 403.66ZM237.336 403.72C237.336 407.29 234.906 409.3 232.326 409.3C229.776 409.3 227.316 407.23 227.316 403.66C227.316 400.09 229.776 398.17 232.326 398.17C234.906 398.17 237.336 400.18 237.336 403.72ZM244.138 403.66C244.138 408.76 247.588 412.27 251.878 412.27C254.638 412.27 256.618 410.95 257.668 409.54V412H261.118V395.47H257.668V397.87C256.648 396.52 254.728 395.2 251.938 395.2C247.588 395.2 244.138 398.56 244.138 403.66ZM257.668 403.72C257.668 407.29 255.238 409.3 252.658 409.3C250.108 409.3 247.648 407.23 247.648 403.66C247.648 400.09 250.108 398.17 252.658 398.17C255.238 398.17 257.668 400.18 257.668 403.72ZM273.943 407.41C273.943 410.77 275.773 412 278.713 412H281.413V409.15H279.313C277.873 409.15 277.393 408.64 277.393 407.41V398.26H281.413V395.47H277.393V391.36H273.943V395.47H271.993V398.26H273.943V407.41ZM287.985 403.3C287.985 399.79 289.545 398.74 292.065 398.74H292.935V395.2C290.595 395.2 288.945 396.22 287.985 397.87V395.47H284.565V412H287.985V403.3ZM294.939 403.66C294.939 408.76 298.389 412.27 302.679 412.27C305.439 412.27 307.419 410.95 308.469 409.54V412H311.919V395.47H308.469V397.87C307.449 396.52 305.529 395.2 302.739 395.2C298.389 395.2 294.939 398.56 294.939 403.66ZM308.469 403.72C308.469 407.29 306.039 409.3 303.459 409.3C300.909 409.3 298.449 407.23 298.449 403.66C298.449 400.09 300.909 398.17 303.459 398.17C306.039 398.17 308.469 400.18 308.469 403.72ZM328.141 412H331.531V402.25C331.531 397.63 328.621 395.2 324.751 395.2C322.771 395.2 320.941 396.01 319.831 397.36V395.47H316.411V412H319.831V402.76C319.831 399.73 321.481 398.17 324.001 398.17C326.491 398.17 328.141 399.73 328.141 402.76V412ZM348.224 407.38C348.044 401.41 338.714 403.27 338.714 399.94C338.714 398.83 339.674 398.08 341.504 398.08C343.364 398.08 344.474 399.07 344.594 400.51H348.014C347.834 397.21 345.374 395.2 341.624 395.2C337.724 395.2 335.264 397.33 335.264 399.97C335.264 406.03 344.864 404.17 344.864 407.41C344.864 408.55 343.814 409.39 341.834 409.39C339.944 409.39 338.654 408.28 338.534 406.93H334.994C335.144 409.93 337.934 412.27 341.894 412.27C345.794 412.27 348.224 410.17 348.224 407.38ZM350.779 403.66C350.779 408.76 354.229 412.27 358.519 412.27C361.279 412.27 363.259 410.95 364.309 409.54V412H367.759V395.47H364.309V397.87C363.289 396.52 361.369 395.2 358.579 395.2C354.229 395.2 350.779 398.56 350.779 403.66ZM364.309 403.72C364.309 407.29 361.879 409.3 359.299 409.3C356.749 409.3 354.289 407.23 354.289 403.66C354.289 400.09 356.749 398.17 359.299 398.17C361.879 398.17 364.309 400.18 364.309 403.72ZM372.251 412H375.671V404.89L381.791 412H386.411L378.791 403.75L386.411 395.47H381.671L375.671 402.7V389.8H372.251V412ZM401.192 407.38C401.012 401.41 391.682 403.27 391.682 399.94C391.682 398.83 392.642 398.08 394.472 398.08C396.332 398.08 397.442 399.07 397.562 400.51H400.982C400.802 397.21 398.342 395.2 394.592 395.2C390.692 395.2 388.232 397.33 388.232 399.97C388.232 406.03 397.832 404.17 397.832 407.41C397.832 408.55 396.782 409.39 394.802 409.39C392.912 409.39 391.622 408.28 391.502 406.93H387.962C388.112 409.93 390.902 412.27 394.862 412.27C398.762 412.27 401.192 410.17 401.192 407.38ZM404.888 412H408.308V395.47H404.888V412ZM406.628 393.28C407.828 393.28 408.788 392.32 408.788 391.09C408.788 389.86 407.828 388.9 406.628 388.9C405.398 388.9 404.438 389.86 404.438 391.09C404.438 392.32 405.398 393.28 406.628 393.28Z" fill="#00529C"/>
<mask id="mask0" mask-type="alpha" maskUnits="userSpaceOnUse" x="198" y="178" width="145" height="97">
<rect x="198" y="178" width="145" height="97" rx="10" fill="#FF4949"/>
</mask>
<g mask="url(#mask0)">
<path d="M243 200C241.343 200 240 201.343 240 203C240 204.657 241.343 206 243 206V200ZM295 206C296.657 206 298 204.657 298 203C298 201.343 296.657 200 295 200V206ZM243 206H295V200H243V206Z" fill="#838383"/>
<path d="M243 228.5C241.343 228.5 240 229.843 240 231.5C240 233.157 241.343 234.5 243 234.5V228.5ZM295 234.5C296.657 234.5 298 233.157 298 231.5C298 229.843 296.657 228.5 295 228.5V234.5ZM243 234.5H295V228.5H243V234.5Z" fill="#838383"/>
<path d="M243 200C241.343 200 240 201.343 240 203C240 204.657 241.343 206 243 206V200ZM295 206C296.657 206 298 204.657 298 203C298 201.343 296.657 200 295 200V206ZM243 206H295V200H243V206Z" fill="#838383"/>
<path d="M243 242.5C241.343 242.5 240 243.843 240 245.5C240 247.157 241.343 248.5 243 248.5V242.5ZM260 248.5C261.657 248.5 263 247.157 263 245.5C263 243.843 261.657 242.5 260 242.5V248.5ZM243 248.5H260V242.5H243V248.5Z" fill="#838383"/>
<path d="M243 214.5C241.343 214.5 240 215.843 240 217.5C240 219.157 241.343 220.5 243 220.5V214.5ZM277.5 220.5C279.157 220.5 280.5 219.157 280.5 217.5C280.5 215.843 279.157 214.5 277.5 214.5V220.5ZM243 220.5H277.5V214.5H243V220.5Z" fill="#838383"/>
<path d="M209 258.5C208.172 258.5 207.5 259.172 207.5 260C207.5 260.828 208.172 261.5 209 261.5V258.5ZM252 261.5C252.828 261.5 253.5 260.828 253.5 260C253.5 259.172 252.828 258.5 252 258.5V261.5ZM209 261.5H252V258.5H209V261.5Z" fill="#838383"/>
<path d="M199.5 244.5C198.672 244.5 198 245.172 198 246C198 246.828 198.672 247.5 199.5 247.5V244.5ZM231 247.5C231.828 247.5 232.5 246.828 232.5 246C232.5 245.172 231.828 244.5 231 244.5V247.5ZM199.5 247.5H231V244.5H199.5V247.5Z" fill="#838383"/>
<path d="M265 257C263.343 257 262 258.343 262 260C262 261.657 263.343 263 265 263V257ZM294.5 263C296.157 263 297.5 261.657 297.5 260C297.5 258.343 296.157 257 294.5 257V263ZM265 263H294.5V257H265V263Z" fill="#838383"/>
<path d="M291 214C289.343 214 288 215.343 288 217C288 218.657 289.343 220 291 220V214ZM320.5 220C322.157 220 323.5 218.657 323.5 217C323.5 215.343 322.157 214 320.5 214V220ZM291 220H320.5V214H291V220Z" fill="#838383"/>
<path d="M313 258.5C312.172 258.5 311.5 259.172 311.5 260C311.5 260.828 312.172 261.5 313 261.5V258.5ZM333 261.5C333.828 261.5 334.5 260.828 334.5 260C334.5 259.172 333.828 258.5 333 258.5V261.5ZM313 261.5H333V258.5H313V261.5Z" fill="#838383"/>
<path d="M327 230.5C326.172 230.5 325.5 231.172 325.5 232C325.5 232.828 326.172 233.5 327 233.5V230.5ZM334.5 233.5C335.328 233.5 336 232.828 336 232C336 231.172 335.328 230.5 334.5 230.5V233.5ZM327 233.5H334.5V230.5H327V233.5Z" fill="#838383"/>
<path d="M205 230.5C204.172 230.5 203.5 231.172 203.5 232C203.5 232.828 204.172 233.5 205 233.5V230.5ZM225 233.5C225.828 233.5 226.5 232.828 226.5 232C226.5 231.172 225.828 230.5 225 230.5V233.5ZM205 233.5H225V230.5H205V233.5Z" fill="#838383"/>
<path d="M273 243C271.343 243 270 244.343 270 246C270 247.657 271.343 249 273 249V243ZM312 249C313.657 249 315 247.657 315 246C315 244.343 313.657 243 312 243V249ZM273 249H312V243H273V249Z" fill="#838383"/>
<path d="M323 245C322.172 245 321.5 245.672 321.5 246.5C321.5 247.328 322.172 248 323 248V245ZM340.5 248C341.328 248 342 247.328 342 246.5C342 245.672 341.328 245 340.5 245V248ZM323 248H340.5V245H323V248Z" fill="#838383"/>
<path d="M308 229C306.343 229 305 230.343 305 232C305 233.657 306.343 235 308 235V229ZM317.5 235C319.157 235 320.5 233.657 320.5 232C320.5 230.343 319.157 229 317.5 229V235ZM308 235H317.5V229H308V235Z" fill="#838383"/>
<path d="M220 229C218.343 229 217 230.343 217 232C217 233.657 218.343 235 220 235V229ZM229.5 235C231.157 235 232.5 233.657 232.5 232C232.5 230.343 231.157 229 229.5 229V235ZM220 235H229.5V229H220V235Z" fill="#838383"/>
<path d="M220 214C218.343 214 217 215.343 217 217C217 218.657 218.343 220 220 220V214ZM229.5 220C231.157 220 232.5 218.657 232.5 217C232.5 215.343 231.157 214 229.5 214V220ZM220 220H229.5V214H220V220Z" fill="#838383"/>
<path d="M220 200C218.343 200 217 201.343 217 203C217 204.657 218.343 206 220 206V200ZM229.5 206C231.157 206 232.5 204.657 232.5 203C232.5 201.343 231.157 200 229.5 200V206ZM220 206H229.5V200H220V206Z" fill="#838383"/>
</g>
<path d="M308 200C306.343 200 305 201.343 305 203C305 204.657 306.343 206 308 206V200ZM317.5 206C319.157 206 320.5 204.657 320.5 203C320.5 201.343 319.157 200 317.5 200V206ZM308 206H317.5V200H308V206Z" fill="#838383"/>
<rect x="297" y="266.426" width="12.5507" height="21.7675" transform="rotate(-36.2777 297 266.426)" fill="#666666"/>
<path d="M303.958 288.1C302.325 285.874 302.805 282.745 305.031 281.111L318.863 270.958C321.089 269.325 324.218 269.805 325.852 272.031L354.965 311.696C359.403 317.742 358.099 326.24 352.053 330.678C346.008 335.115 337.509 333.811 333.072 327.765L303.958 288.1Z" fill="#00529C"/>
<path d="M303.958 288.1C302.325 285.874 302.805 282.745 305.031 281.111L318.863 270.958C321.089 269.325 324.218 269.805 325.852 272.031L326.946 273.521L305.052 289.59L303.958 288.1Z" fill="#FFD232"/>
<circle cx="268.5" cy="218.5" r="51.5" stroke="#00529C" stroke-width="10"/>
<circle cx="269" cy="219" r="46.5" stroke="#C2C2C2" stroke-width="5"/>
<circle cx="269" cy="219" r="44" fill="#090909" fill-opacity="0.17"/>
<path d="M264.71 185.404C266.364 185.505 267.786 184.246 267.886 182.592C267.987 180.938 266.728 179.516 265.074 179.415L264.71 185.404ZM247.11 185.884C245.823 186.927 245.626 188.816 246.669 190.103C247.713 191.39 249.602 191.588 250.889 190.544L247.11 185.884ZM264.892 182.41C265.074 179.415 265.073 179.415 265.071 179.415C265.071 179.415 265.07 179.415 265.069 179.415C265.067 179.415 265.065 179.415 265.063 179.415C265.058 179.414 265.054 179.414 265.048 179.414C265.038 179.413 265.025 179.413 265.011 179.412C264.982 179.411 264.945 179.409 264.9 179.408C264.811 179.404 264.691 179.402 264.543 179.401C264.246 179.399 263.834 179.406 263.324 179.436C262.306 179.496 260.888 179.65 259.211 180.021C255.857 180.763 251.43 182.382 247.11 185.884L250.889 190.544C254.337 187.748 257.856 186.465 260.506 185.879C261.831 185.586 262.93 185.47 263.678 185.426C264.051 185.404 264.335 185.4 264.512 185.401C264.601 185.401 264.664 185.403 264.697 185.404C264.714 185.405 264.724 185.405 264.726 185.405C264.727 185.405 264.726 185.405 264.724 185.405C264.722 185.405 264.721 185.405 264.718 185.405C264.717 185.405 264.716 185.405 264.714 185.405C264.714 185.404 264.713 185.404 264.712 185.404C264.711 185.404 264.71 185.404 264.892 182.41Z" fill="white"/>
<path d="M242.609 198.756C243.66 197.476 243.474 195.585 242.193 194.534C240.912 193.483 239.022 193.669 237.971 194.95L242.609 198.756ZM229.924 227.163C230.109 228.81 231.594 229.994 233.241 229.809C234.887 229.623 236.071 228.138 235.886 226.492L229.924 227.163ZM237.971 194.95C234.368 199.34 228.159 211.506 229.924 227.163L235.886 226.492C234.325 212.639 239.903 202.053 242.609 198.756L237.971 194.95Z" fill="white"/>
<defs>
<filter id="filter0_d" x="0" y="0" width="520" height="520" filterUnits="userSpaceOnUse" color-interpolation-filters="sRGB">
<feFlood flood-opacity="0" result="BackgroundImageFix"/>
<feColorMatrix in="SourceAlpha" type="matrix" values="0 0 0 0 0 0 0 0 0 0 0 0 0 0 0 0 0 0 127 0"/>
<feOffset dy="4"/>
<feGaussianBlur stdDeviation="6"/>
<feColorMatrix type="matrix" values="0 0 0 0 0 0 0 0 0 0 0 0 0 0 0 0 0 0 0.08 0"/>
<feBlend mode="normal" in2="BackgroundImageFix" result="effect1_dropShadow"/>
<feBlend mode="normal" in="SourceGraphic" in2="effect1_dropShadow" result="shape"/>
</filter>
</defs>
</svg>
