<svg width="213" height="213" viewBox="0 0 213 213" fill="none" xmlns="http://www.w3.org/2000/svg">
<path d="M213 106.5C213 165.318 165.318 213 106.5 213C47.6817 213 0 165.318 0 106.5C0 47.6817 47.6817 0 106.5 0C165.318 0 213 47.6817 213 106.5Z" fill="#EBF4FF"/>
<g filter="url(#filter0_d)">
<rect x="59.3389" y="39.3445" width="94.8305" height="134.994" rx="6" fill="white"/>
</g>
<path d="M114.918 95.648L119.453 93.494L131.174 116.53C131.684 117.534 131.266 118.761 130.249 119.244L127.926 120.347C126.905 120.832 125.685 120.375 125.234 119.339L114.918 95.648Z" fill="#58A0E3"/>
<path d="M124.062 119.724C123.813 119.147 124.065 118.476 124.633 118.206L130.667 115.34C131.232 115.072 131.907 115.297 132.197 115.85L146.074 142.288C147.563 145.124 146.394 148.629 143.501 150.003V150.003C140.616 151.373 137.17 150.076 135.904 147.144L124.062 119.724Z" fill="#00509B"/>
<circle cx="107.263" cy="76.6467" r="28.0827" transform="rotate(-25.4066 107.263 76.6467)" fill="#EDF5FF" stroke="#00509B" stroke-width="8"/>
<rect x="64.917" y="144.216" width="32.354" height="3.34696" rx="1.67348" fill="#00509B" fill-opacity="0.2"/>
<rect x="64.917" y="152.026" width="35.7009" height="3.34696" rx="1.67348" fill="#00509B" fill-opacity="0.2"/>
<rect x="64.917" y="159.835" width="37.9322" height="3.34696" rx="1.67348" fill="#00509B" fill-opacity="0.2"/>
<path d="M103.156 73.418C103.156 74.804 102.386 75.706 100.67 75.706H98.096V71.196H100.67C102.386 71.196 103.156 72.054 103.156 73.418ZM95.016 68.644V84H98.096V78.016H99.548L102.936 84H106.5L102.826 77.774C105.29 77.114 106.324 75.222 106.324 73.352C106.324 70.778 104.476 68.644 100.78 68.644H95.016ZM112.19 73.572V71.812H109.11V89.808H112.19V82.262C112.938 83.252 114.302 84.198 116.216 84.198C119.34 84.198 121.782 81.668 121.782 77.862C121.782 74.056 119.34 71.614 116.216 71.614C114.324 71.614 112.916 72.538 112.19 73.572ZM118.636 77.862C118.636 80.172 117.074 81.492 115.402 81.492C113.752 81.492 112.19 80.216 112.19 77.906C112.19 75.596 113.752 74.32 115.402 74.32C117.074 74.32 118.636 75.552 118.636 77.862Z" fill="#FF6533"/>
<defs>
<filter id="filter0_d" x="50.3389" y="32.3445" width="118.831" height="158.994" filterUnits="userSpaceOnUse" color-interpolation-filters="sRGB">
<feFlood flood-opacity="0" result="BackgroundImageFix"/>
<feColorMatrix in="SourceAlpha" type="matrix" values="0 0 0 0 0 0 0 0 0 0 0 0 0 0 0 0 0 0 127 0"/>
<feOffset dx="3" dy="5"/>
<feGaussianBlur stdDeviation="6"/>
<feColorMatrix type="matrix" values="0 0 0 0 0 0 0 0 0 0 0 0 0 0 0 0 0 0 0.05 0"/>
<feBlend mode="normal" in2="BackgroundImageFix" result="effect1_dropShadow"/>
<feBlend mode="normal" in="SourceGraphic" in2="effect1_dropShadow" result="shape"/>
</filter>
</defs>
</svg>
