<svg width="296" height="25" viewBox="0 0 296 25" fill="none" xmlns="http://www.w3.org/2000/svg">
<path d="M0.622148 5.94H6.20215V24H9.62215V5.94H15.1721V3.15H0.622148V5.94ZM18.6357 24H22.0557V7.47H18.6357V24ZM20.3757 5.28C21.5757 5.28 22.5357 4.32 22.5357 3.09C22.5357 1.86 21.5757 0.899999 20.3757 0.899999C19.1457 0.899999 18.1857 1.86 18.1857 3.09C18.1857 4.32 19.1457 5.28 20.3757 5.28ZM25.4059 15.66C25.4059 20.76 28.8559 24.27 33.2059 24.27C35.9059 24.27 37.8859 23.01 38.9359 21.51V24H42.3859V1.8H38.9359V9.78C37.6759 8.22 35.3959 7.2 33.2359 7.2C28.8559 7.2 25.4059 10.56 25.4059 15.66ZM38.9359 15.72C38.9359 19.29 36.5059 21.3 33.9259 21.3C31.3759 21.3 28.9159 19.23 28.9159 15.66C28.9159 12.09 31.3759 10.17 33.9259 10.17C36.5059 10.17 38.9359 12.18 38.9359 15.72ZM45.7379 15.66C45.7379 20.76 49.1879 24.27 53.4779 24.27C56.2379 24.27 58.2179 22.95 59.2679 21.54V24H62.7179V7.47H59.2679V9.87C58.2479 8.52 56.3279 7.2 53.5379 7.2C49.1879 7.2 45.7379 10.56 45.7379 15.66ZM59.2679 15.72C59.2679 19.29 56.8379 21.3 54.2579 21.3C51.7079 21.3 49.2479 19.23 49.2479 15.66C49.2479 12.09 51.7079 10.17 54.2579 10.17C56.8379 10.17 59.2679 12.18 59.2679 15.72ZM67.21 24H70.63V16.89L76.75 24H81.37L73.75 15.75L81.37 7.47H76.63L70.63 14.7V1.8H67.21V24ZM90.4743 15.66C90.4743 20.76 93.9243 24.27 98.2143 24.27C100.974 24.27 102.954 22.95 104.004 21.54V24H107.454V7.47H104.004V9.87C102.984 8.52 101.064 7.2 98.2743 7.2C93.9243 7.2 90.4743 10.56 90.4743 15.66ZM104.004 15.72C104.004 19.29 101.574 21.3 98.9943 21.3C96.4443 21.3 93.9843 19.23 93.9843 15.66C93.9843 12.09 96.4443 10.17 98.9943 10.17C101.574 10.17 104.004 12.18 104.004 15.72ZM110.806 15.66C110.806 20.76 114.256 24.27 118.606 24.27C121.306 24.27 123.286 23.01 124.336 21.51V24H127.786V1.8H124.336V9.78C123.076 8.22 120.796 7.2 118.636 7.2C114.256 7.2 110.806 10.56 110.806 15.66ZM124.336 15.72C124.336 19.29 121.906 21.3 119.326 21.3C116.776 21.3 114.316 19.23 114.316 15.66C114.316 12.09 116.776 10.17 119.326 10.17C121.906 10.17 124.336 12.18 124.336 15.72ZM131.138 15.66C131.138 20.76 134.588 24.27 138.878 24.27C141.638 24.27 143.618 22.95 144.668 21.54V24H148.118V7.47H144.668V9.87C143.648 8.52 141.728 7.2 138.938 7.2C134.588 7.2 131.138 10.56 131.138 15.66ZM144.668 15.72C144.668 19.29 142.238 21.3 139.658 21.3C137.108 21.3 134.648 19.23 134.648 15.66C134.648 12.09 137.108 10.17 139.658 10.17C142.238 10.17 144.668 12.18 144.668 15.72ZM160.943 19.41C160.943 22.77 162.773 24 165.713 24H168.413V21.15H166.313C164.873 21.15 164.393 20.64 164.393 19.41V10.26H168.413V7.47H164.393V3.36H160.943V7.47H158.993V10.26H160.943V19.41ZM174.985 15.3C174.985 11.79 176.545 10.74 179.065 10.74H179.935V7.2C177.595 7.2 175.945 8.22 174.985 9.87V7.47H171.565V24H174.985V15.3ZM181.939 15.66C181.939 20.76 185.389 24.27 189.679 24.27C192.439 24.27 194.419 22.95 195.469 21.54V24H198.919V7.47H195.469V9.87C194.449 8.52 192.529 7.2 189.739 7.2C185.389 7.2 181.939 10.56 181.939 15.66ZM195.469 15.72C195.469 19.29 193.039 21.3 190.459 21.3C187.909 21.3 185.449 19.23 185.449 15.66C185.449 12.09 187.909 10.17 190.459 10.17C193.039 10.17 195.469 12.18 195.469 15.72ZM215.141 24H218.531V14.25C218.531 9.63 215.621 7.2 211.751 7.2C209.771 7.2 207.941 8.01 206.831 9.36V7.47H203.411V24H206.831V14.76C206.831 11.73 208.481 10.17 211.001 10.17C213.491 10.17 215.141 11.73 215.141 14.76V24ZM235.224 19.38C235.044 13.41 225.714 15.27 225.714 11.94C225.714 10.83 226.674 10.08 228.504 10.08C230.364 10.08 231.474 11.07 231.594 12.51H235.014C234.834 9.21 232.374 7.2 228.624 7.2C224.724 7.2 222.264 9.33 222.264 11.97C222.264 18.03 231.864 16.17 231.864 19.41C231.864 20.55 230.814 21.39 228.834 21.39C226.944 21.39 225.654 20.28 225.534 18.93H221.994C222.144 21.93 224.934 24.27 228.894 24.27C232.794 24.27 235.224 22.17 235.224 19.38ZM237.779 15.66C237.779 20.76 241.229 24.27 245.519 24.27C248.279 24.27 250.259 22.95 251.309 21.54V24H254.759V7.47H251.309V9.87C250.289 8.52 248.369 7.2 245.579 7.2C241.229 7.2 237.779 10.56 237.779 15.66ZM251.309 15.72C251.309 19.29 248.879 21.3 246.299 21.3C243.749 21.3 241.289 19.23 241.289 15.66C241.289 12.09 243.749 10.17 246.299 10.17C248.879 10.17 251.309 12.18 251.309 15.72ZM259.251 24H262.671V16.89L268.791 24H273.411L265.791 15.75L273.411 7.47H268.671L262.671 14.7V1.8H259.251V24ZM288.192 19.38C288.012 13.41 278.682 15.27 278.682 11.94C278.682 10.83 279.642 10.08 281.472 10.08C283.332 10.08 284.442 11.07 284.562 12.51H287.982C287.802 9.21 285.342 7.2 281.592 7.2C277.692 7.2 275.232 9.33 275.232 11.97C275.232 18.03 284.832 16.17 284.832 19.41C284.832 20.55 283.782 21.39 281.802 21.39C279.912 21.39 278.622 20.28 278.502 18.93H274.962C275.112 21.93 277.902 24.27 281.862 24.27C285.762 24.27 288.192 22.17 288.192 19.38ZM291.888 24H295.308V7.47H291.888V24ZM293.628 5.28C294.828 5.28 295.788 4.32 295.788 3.09C295.788 1.86 294.828 0.899999 293.628 0.899999C292.398 0.899999 291.438 1.86 291.438 3.09C291.438 4.32 292.398 5.28 293.628 5.28Z" fill="#00529C"/>
</svg>
